<svg width="92" height="52" viewBox="0 0 92 52" fill="none" xmlns="http://www.w3.org/2000/svg">
<g filter="url(#filter0_d_145_354)">
<path d="M11.06 0.999999C14.12 0.999999 16.54 1.77 18.32 3.31C20.1 4.83 20.99 7.01 20.99 9.85H14.66C14.66 8.65 14.34 7.7 13.7 7C13.08 6.3 12.19 5.95 11.03 5.95C9.69 5.95 8.7 6.37 8.06 7.21C7.44 8.05 7.13 9.22 7.13 10.72V12.64C7.13 14.12 7.44 15.29 8.06 16.15C8.7 16.99 9.67 17.41 10.97 17.41C12.25 17.41 13.22 17.08 13.88 16.42C14.54 15.76 14.87 14.83 14.87 13.63H20.99C20.99 16.45 20.12 18.61 18.38 20.11C16.66 21.61 14.22 22.36 11.06 22.36C7.54 22.36 4.87 21.46 3.05 19.66C1.25 17.86 0.35 15.2 0.35 11.68C0.35 8.16 1.25 5.5 3.05 3.7C4.87 1.9 7.54 0.999999 11.06 0.999999ZM30.2396 5.8C33.0196 5.8 35.1996 6.51 36.7796 7.93C38.3796 9.33 39.1796 11.38 39.1796 14.08C39.1796 16.78 38.3796 18.84 36.7796 20.26C35.1996 21.66 33.0196 22.36 30.2396 22.36C27.4596 22.36 25.2796 21.66 23.6996 20.26C22.1196 18.86 21.3296 16.8 21.3296 14.08C21.3296 11.36 22.1196 9.3 23.6996 7.9C25.2796 6.5 27.4596 5.8 30.2396 5.8ZM30.2396 9.85C28.2796 9.85 27.2996 10.98 27.2996 13.24V14.95C27.2996 17.19 28.2796 18.31 30.2396 18.31C32.2196 18.31 33.2096 17.19 33.2096 14.95V13.24C33.2096 10.98 32.2196 9.85 30.2396 9.85ZM47.7894 5.8C50.2094 5.8 52.1794 6.21 53.6994 7.03C55.2194 7.83 55.9794 9.14 55.9794 10.96V17.14C55.9794 17.48 56.0594 17.76 56.2194 17.98C56.3794 18.2 56.6194 18.31 56.9394 18.31H58.0194V21.76C57.9594 21.8 57.7994 21.87 57.5394 21.97C57.2994 22.05 56.9494 22.13 56.4894 22.21C56.0294 22.31 55.4994 22.36 54.8994 22.36C53.7394 22.36 52.7794 22.19 52.0194 21.85C51.2794 21.49 50.7694 21 50.4894 20.38C49.7294 20.98 48.8794 21.46 47.9394 21.82C46.9994 22.18 45.8994 22.36 44.6394 22.36C40.9194 22.36 39.0594 20.88 39.0594 17.92C39.0594 16.38 39.4694 15.21 40.2894 14.41C41.1294 13.59 42.3294 13.03 43.8894 12.73C45.4494 12.43 47.4894 12.28 50.0094 12.28V11.5C50.0094 10.88 49.7894 10.41 49.3494 10.09C48.9294 9.77 48.3794 9.61 47.6994 9.61C47.0794 9.61 46.5394 9.72 46.0794 9.94C45.6394 10.16 45.4194 10.51 45.4194 10.99V11.11H39.5394C39.5194 11.01 39.5094 10.87 39.5094 10.69C39.5094 9.19 40.2194 8 41.6394 7.12C43.0794 6.24 45.1294 5.8 47.7894 5.8ZM50.0094 15.1C48.3094 15.1 47.0494 15.29 46.2294 15.67C45.4294 16.03 45.0294 16.52 45.0294 17.14C45.0294 18.14 45.7094 18.64 47.0694 18.64C47.8494 18.64 48.5294 18.43 49.1094 18.01C49.7094 17.59 50.0094 17.07 50.0094 16.45V15.1ZM66.0591 5.8C68.6591 5.8 70.7591 6.36 72.3591 7.48C73.9791 8.58 74.7891 10.27 74.7891 12.55H68.9991C68.9991 10.75 68.0191 9.85 66.0591 9.85C64.0991 9.85 63.1191 10.98 63.1191 13.24V14.95C63.1191 17.19 64.1391 18.31 66.1791 18.31C68.2191 18.31 69.2391 17.39 69.2391 15.55H74.7891C74.7891 17.85 73.9791 19.56 72.3591 20.68C70.7591 21.8 68.6591 22.36 66.0591 22.36C63.2791 22.36 61.0991 21.66 59.5191 20.26C57.9391 18.86 57.1491 16.8 57.1491 14.08C57.1491 11.36 57.9391 9.3 59.5191 7.9C61.0991 6.5 63.2791 5.8 66.0591 5.8ZM81.2509 7.81C81.8909 7.17 82.6409 6.68 83.5009 6.34C84.3609 5.98 85.2609 5.8 86.2009 5.8C88.0409 5.8 89.4209 6.31 90.3409 7.33C91.2609 8.35 91.7209 9.82 91.7209 11.74V22H85.7509V12.46C85.7509 11.78 85.5709 11.24 85.2109 10.84C84.8709 10.42 84.3809 10.21 83.7409 10.21C83.0009 10.21 82.4009 10.45 81.9409 10.93C81.4809 11.41 81.2509 12 81.2509 12.7V22H75.2809V0.249999H81.2509V7.81ZM11.06 27C14.12 27 16.54 27.77 18.32 29.31C20.1 30.83 20.99 33.01 20.99 35.85H14.66C14.66 34.65 14.34 33.7 13.7 33C13.08 32.3 12.19 31.95 11.03 31.95C9.69 31.95 8.7 32.37 8.06 33.21C7.44 34.05 7.13 35.22 7.13 36.72V38.64C7.13 40.12 7.44 41.29 8.06 42.15C8.7 42.99 9.67 43.41 10.97 43.41C12.25 43.41 13.22 43.08 13.88 42.42C14.54 41.76 14.87 40.83 14.87 39.63H20.99C20.99 42.45 20.12 44.61 18.38 46.11C16.66 47.61 14.22 48.36 11.06 48.36C7.54 48.36 4.87 47.46 3.05 45.66C1.25 43.86 0.35 41.2 0.35 37.68C0.35 34.16 1.25 31.5 3.05 29.7C4.87 27.9 7.54 27 11.06 27ZM31.6796 31.77C32.1396 31.77 32.5496 31.83 32.9096 31.95C33.2696 32.05 33.4496 32.11 33.4496 32.13V37.14H31.5296C30.2896 37.14 29.3896 37.46 28.8296 38.1C28.2896 38.74 28.0196 39.69 28.0196 40.95V48H22.0496V32.16H26.9396L27.3296 34.56C27.6896 33.64 28.2596 32.95 29.0396 32.49C29.8196 32.01 30.6996 31.77 31.6796 31.77ZM41.6077 31.8C44.0277 31.8 45.9977 32.21 47.5177 33.03C49.0377 33.83 49.7977 35.14 49.7977 36.96V43.14C49.7977 43.48 49.8777 43.76 50.0377 43.98C50.1977 44.2 50.4377 44.31 50.7577 44.31H51.8377V47.76C51.7777 47.8 51.6177 47.87 51.3577 47.97C51.1177 48.05 50.7677 48.13 50.3077 48.21C49.8477 48.31 49.3177 48.36 48.7177 48.36C47.5577 48.36 46.5977 48.19 45.8377 47.85C45.0977 47.49 44.5877 47 44.3077 46.38C43.5477 46.98 42.6977 47.46 41.7577 47.82C40.8177 48.18 39.7177 48.36 38.4577 48.36C34.7377 48.36 32.8777 46.88 32.8777 43.92C32.8777 42.38 33.2877 41.21 34.1077 40.41C34.9477 39.59 36.1477 39.03 37.7077 38.73C39.2677 38.43 41.3077 38.28 43.8277 38.28V37.5C43.8277 36.88 43.6077 36.41 43.1677 36.09C42.7477 35.77 42.1977 35.61 41.5177 35.61C40.8977 35.61 40.3577 35.72 39.8977 35.94C39.4577 36.16 39.2377 36.51 39.2377 36.99V37.11H33.3577C33.3377 37.01 33.3277 36.87 33.3277 36.69C33.3277 35.19 34.0377 34 35.4577 33.12C36.8977 32.24 38.9477 31.8 41.6077 31.8ZM43.8277 41.1C42.1277 41.1 40.8677 41.29 40.0477 41.67C39.2477 42.03 38.8477 42.52 38.8477 43.14C38.8477 44.14 39.5277 44.64 40.8877 44.64C41.6677 44.64 42.3477 44.43 42.9277 44.01C43.5277 43.59 43.8277 43.07 43.8277 42.45V41.1ZM58.1375 25.89C58.5775 25.89 59.1275 25.95 59.7875 26.07C60.4475 26.17 60.9775 26.29 61.3775 26.43V29.94H59.9975C59.3575 29.94 58.9175 30.06 58.6775 30.3C58.4375 30.54 58.3175 30.95 58.3175 31.53V32.16H61.3775V36.21H58.3175V48H52.3475V36.21H50.1275V32.16H52.3475V31.5C52.3475 29.46 52.8475 28.02 53.8475 27.18C54.8475 26.32 56.2775 25.89 58.1375 25.89ZM71.8077 32.16V36.21H68.4477V42.24C68.4477 42.96 68.5677 43.49 68.8077 43.83C69.0477 44.15 69.4877 44.31 70.1277 44.31H71.8077V47.82C71.3277 47.98 70.7077 48.11 69.9477 48.21C69.1877 48.31 68.5277 48.36 67.9677 48.36C66.2077 48.36 64.8477 48.04 63.8877 47.4C62.9477 46.76 62.4777 45.67 62.4777 44.13V36.21H60.2577V32.16H62.7177L64.0077 27.36H68.4477V32.16H71.8077Z" fill="white"/>
</g>
<defs>
<filter id="filter0_d_145_354" x="0.350098" y="0.25" width="91.3708" height="51.1104" filterUnits="userSpaceOnUse" color-interpolation-filters="sRGB">
<feFlood flood-opacity="0" result="BackgroundImageFix"/>
<feColorMatrix in="SourceAlpha" type="matrix" values="0 0 0 0 0 0 0 0 0 0 0 0 0 0 0 0 0 0 127 0" result="hardAlpha"/>
<feOffset dy="3"/>
<feComposite in2="hardAlpha" operator="out"/>
<feColorMatrix type="matrix" values="0 0 0 0 1 0 0 0 0 1 0 0 0 0 1 0 0 0 0.4 0"/>
<feBlend mode="normal" in2="BackgroundImageFix" result="effect1_dropShadow_145_354"/>
<feBlend mode="normal" in="SourceGraphic" in2="effect1_dropShadow_145_354" result="shape"/>
</filter>
</defs>
</svg>
