<svg width="104" height="53" viewBox="0 0 104 53" fill="none" xmlns="http://www.w3.org/2000/svg">
<g filter="url(#filter0_d_60_531)">
<path d="M16.6095 8V4H8.60951V0H16.6095V4H20.6095V8H16.6095ZM8.60951 20V16H4.60951V4H8.60951V16H16.6095V20H8.60951ZM16.6095 16V12H20.6095V16H16.6095ZM28.4495 20V16H24.4495V4H28.4495V0H36.4495V4H40.4495V16H36.4495V20H28.4495ZM28.4495 15.84H36.4495V4.16H28.4495V15.84ZM44.2895 20V4H48.2895V0H56.2895V4H60.2895V20H56.2895V12H48.2895V20H44.2895ZM48.2895 8H56.2895V4.16H48.2895V8ZM76.1295 8V4H68.1295V0H76.1295V4H80.1295V8H76.1295ZM68.1295 20V16H64.1295V4H68.1295V16H76.1295V20H68.1295ZM76.1295 16V12H80.1295V16H76.1295ZM83.9695 20V0H87.9695V8H95.9695V0H99.9695V20H95.9695V12H87.9695V20H83.9695ZM20.6095 33V29H12.6095V25H20.6095V29H24.6095V33H20.6095ZM12.6095 45V41H8.60951V29H12.6095V41H20.6095V45H12.6095ZM20.6095 41V37H24.6095V41H20.6095ZM28.4495 45V25H40.4495V29H44.4495V33H40.4495V41H44.4495V45H40.4495V41H36.4495V37H32.4495V45H28.4495ZM32.4495 33H40.2895V29H32.4495V33ZM48.2895 45V29H52.2895V25H60.2895V29H64.2895V45H60.2895V37H52.2895V45H48.2895ZM52.2895 33H60.2895V29.16H52.2895V33ZM68.1295 45V25H80.1295V29H72.1295V33H80.1295V37H72.1295V45H68.1295ZM87.9695 45V29H83.9695V25H95.9695V29H91.9695V45H87.9695Z" fill="white"/>
</g>
<defs>
<filter id="filter0_d_60_531" x="0.609619" y="0" width="103.36" height="53" filterUnits="userSpaceOnUse" color-interpolation-filters="sRGB">
<feFlood flood-opacity="0" result="BackgroundImageFix"/>
<feColorMatrix in="SourceAlpha" type="matrix" values="0 0 0 0 0 0 0 0 0 0 0 0 0 0 0 0 0 0 127 0" result="hardAlpha"/>
<feOffset dy="4"/>
<feGaussianBlur stdDeviation="2"/>
<feComposite in2="hardAlpha" operator="out"/>
<feColorMatrix type="matrix" values="0 0 0 0 0 0 0 0 0 0 0 0 0 0 0 0 0 0 0.25 0"/>
<feBlend mode="normal" in2="BackgroundImageFix" result="effect1_dropShadow_60_531"/>
<feBlend mode="normal" in="SourceGraphic" in2="effect1_dropShadow_60_531" result="shape"/>
</filter>
</defs>
</svg>
