<?xml version="1.0" encoding="us-ascii" standalone="no"?><svg xmlns="http://www.w3.org/2000/svg" xmlns:xlink="http://www.w3.org/1999/xlink" contentStyleType="text/css" height="577px" preserveAspectRatio="none" style="width:890px;height:577px;background:#FFFFFF;" version="1.1" viewBox="0 0 890 577" width="890px" zoomAndPan="magnify"><defs/><g><rect fill="none" height="304.5156" style="stroke:#000000;stroke-width:1.5;" width="874.5" x="10" y="115.3125"/><line style="stroke:#181818;stroke-width:0.5;stroke-dasharray:5.0,5.0;" x1="52" x2="52" y1="37.6094" y2="540.8828"/><line style="stroke:#181818;stroke-width:0.5;stroke-dasharray:5.0,5.0;" x1="305" x2="305" y1="37.6094" y2="540.8828"/><line style="stroke:#181818;stroke-width:0.5;stroke-dasharray:5.0,5.0;" x1="562.5" x2="562.5" y1="37.6094" y2="540.8828"/><line style="stroke:#181818;stroke-width:0.5;stroke-dasharray:5.0,5.0;" x1="857.5" x2="857.5" y1="37.6094" y2="540.8828"/><rect fill="#E2E2F0" height="31.6094" rx="2.5" ry="2.5" style="stroke:#181818;stroke-width:0.5;" width="65" x="20" y="5"/><text fill="#000000" font-family="sans-serif" font-size="14" lengthAdjust="spacing" textLength="51" x="27" y="26.5332">Browser</text><rect fill="#E2E2F0" height="31.6094" rx="2.5" ry="2.5" style="stroke:#181818;stroke-width:0.5;" width="65" x="20" y="539.8828"/><text fill="#000000" font-family="sans-serif" font-size="14" lengthAdjust="spacing" textLength="51" x="27" y="561.416">Browser</text><rect fill="#E2E2F0" height="31.6094" rx="2.5" ry="2.5" style="stroke:#181818;stroke-width:0.5;" width="93" x="259" y="5"/><text fill="#000000" font-family="sans-serif" font-size="14" lengthAdjust="spacing" textLength="79" x="266" y="26.5332">Express App</text><rect fill="#E2E2F0" height="31.6094" rx="2.5" ry="2.5" style="stroke:#181818;stroke-width:0.5;" width="93" x="259" y="539.8828"/><text fill="#000000" font-family="sans-serif" font-size="14" lengthAdjust="spacing" textLength="79" x="266" y="561.416">Express App</text><rect fill="#E2E2F0" height="31.6094" rx="2.5" ry="2.5" style="stroke:#181818;stroke-width:0.5;" width="118" x="503.5" y="5"/><text fill="#000000" font-family="sans-serif" font-size="14" lengthAdjust="spacing" textLength="104" x="510.5" y="26.5332">Auth Middleware</text><rect fill="#E2E2F0" height="31.6094" rx="2.5" ry="2.5" style="stroke:#181818;stroke-width:0.5;" width="118" x="503.5" y="539.8828"/><text fill="#000000" font-family="sans-serif" font-size="14" lengthAdjust="spacing" textLength="104" x="510.5" y="561.416">Auth Middleware</text><rect fill="#E2E2F0" height="31.6094" rx="2.5" ry="2.5" style="stroke:#181818;stroke-width:0.5;" width="34" x="840.5" y="5"/><text fill="#000000" font-family="sans-serif" font-size="14" lengthAdjust="spacing" textLength="20" x="847.5" y="26.5332">IdP</text><rect fill="#E2E2F0" height="31.6094" rx="2.5" ry="2.5" style="stroke:#181818;stroke-width:0.5;" width="34" x="840.5" y="539.8828"/><text fill="#000000" font-family="sans-serif" font-size="14" lengthAdjust="spacing" textLength="20" x="847.5" y="561.416">IdP</text><polygon fill="#181818" points="293.5,65.9609,303.5,69.9609,293.5,73.9609,297.5,69.9609" style="stroke:#181818;stroke-width:1.0;"/><line style="stroke:#181818;stroke-width:1.0;" x1="52.5" x2="299.5" y1="69.9609" y2="69.9609"/><text fill="#000000" font-family="sans-serif" font-size="13" lengthAdjust="spacing" textLength="229" x="59.5" y="65.1045">Request Protected Resource (/api/user)</text><polygon fill="#181818" points="550.5,96.3125,560.5,100.3125,550.5,104.3125,554.5,100.3125" style="stroke:#181818;stroke-width:1.0;"/><line style="stroke:#181818;stroke-width:1.0;" x1="305.5" x2="556.5" y1="100.3125" y2="100.3125"/><text fill="#000000" font-family="sans-serif" font-size="13" lengthAdjust="spacing" textLength="100" x="312.5" y="95.4561">Process Request</text><path d="M10,115.3125 L71,115.3125 L71,123.6641 L61,133.6641 L10,133.6641 L10,115.3125 " fill="#EEEEEE" style="stroke:#000000;stroke-width:1.5;"/><rect fill="none" height="304.5156" style="stroke:#000000;stroke-width:1.5;" width="874.5" x="10" y="115.3125"/><text fill="#000000" font-family="sans-serif" font-size="13" font-weight="bold" lengthAdjust="spacing" textLength="16" x="25" y="129.8076">alt</text><text fill="#000000" font-family="sans-serif" font-size="11" font-weight="bold" lengthAdjust="spacing" textLength="133" x="86" y="128.7314">[User not authenticated]</text><polygon fill="#181818" points="63.5,152.0156,53.5,156.0156,63.5,160.0156,59.5,156.0156" style="stroke:#181818;stroke-width:1.0;"/><line style="stroke:#181818;stroke-width:1.0;" x1="57.5" x2="561.5" y1="156.0156" y2="156.0156"/><text fill="#000000" font-family="sans-serif" font-size="13" lengthAdjust="spacing" textLength="221" x="69.5" y="151.1592">Redirect to IdP Authorization Endpoint</text><polygon fill="#181818" points="845.5,182.3672,855.5,186.3672,845.5,190.3672,849.5,186.3672" style="stroke:#181818;stroke-width:1.0;"/><line style="stroke:#181818;stroke-width:1.0;" x1="52.5" x2="851.5" y1="186.3672" y2="186.3672"/><text fill="#000000" font-family="sans-serif" font-size="13" lengthAdjust="spacing" textLength="128" x="59.5" y="181.5107">Authorization Request</text><polygon fill="#181818" points="63.5,212.7188,53.5,216.7188,63.5,220.7188,59.5,216.7188" style="stroke:#181818;stroke-width:1.0;"/><line style="stroke:#181818;stroke-width:1.0;" x1="57.5" x2="856.5" y1="216.7188" y2="216.7188"/><text fill="#000000" font-family="sans-serif" font-size="13" lengthAdjust="spacing" textLength="327" x="69.5" y="211.8623">Redirect to Server Callback URL with Authorization Code</text><polygon fill="#181818" points="293.5,243.0703,303.5,247.0703,293.5,251.0703,297.5,247.0703" style="stroke:#181818;stroke-width:1.0;"/><line style="stroke:#181818;stroke-width:1.0;" x1="52.5" x2="299.5" y1="247.0703" y2="247.0703"/><text fill="#000000" font-family="sans-serif" font-size="13" lengthAdjust="spacing" textLength="221" x="59.5" y="242.2139">Callback Request (/callback?code=...)</text><polygon fill="#181818" points="550.5,273.4219,560.5,277.4219,550.5,281.4219,554.5,277.4219" style="stroke:#181818;stroke-width:1.0;"/><line style="stroke:#181818;stroke-width:1.0;" x1="305.5" x2="556.5" y1="277.4219" y2="277.4219"/><text fill="#000000" font-family="sans-serif" font-size="13" lengthAdjust="spacing" textLength="102" x="312.5" y="272.5654">Process Callback</text><polygon fill="#181818" points="845.5,303.7734,855.5,307.7734,845.5,311.7734,849.5,307.7734" style="stroke:#181818;stroke-width:1.0;"/><line style="stroke:#181818;stroke-width:1.0;" x1="562.5" x2="851.5" y1="307.7734" y2="307.7734"/><text fill="#000000" font-family="sans-serif" font-size="13" lengthAdjust="spacing" textLength="271" x="569.5" y="302.917">Token Exchange Request (Authorization Code)</text><polygon fill="#181818" points="573.5,334.125,563.5,338.125,573.5,342.125,569.5,338.125" style="stroke:#181818;stroke-width:1.0;"/><line style="stroke:#181818;stroke-width:1.0;" x1="567.5" x2="856.5" y1="338.125" y2="338.125"/><text fill="#000000" font-family="sans-serif" font-size="13" lengthAdjust="spacing" textLength="145" x="579.5" y="333.2686">Access Token Response</text><line style="stroke:#181818;stroke-width:1.0;" x1="562.5" x2="604.5" y1="368.4766" y2="368.4766"/><line style="stroke:#181818;stroke-width:1.0;" x1="604.5" x2="604.5" y1="368.4766" y2="381.4766"/><line style="stroke:#181818;stroke-width:1.0;" x1="563.5" x2="604.5" y1="381.4766" y2="381.4766"/><polygon fill="#181818" points="573.5,377.4766,563.5,381.4766,573.5,385.4766,569.5,381.4766" style="stroke:#181818;stroke-width:1.0;"/><text fill="#000000" font-family="sans-serif" font-size="13" lengthAdjust="spacing" textLength="136" x="569.5" y="363.6201">Establish User Session</text><polygon fill="#181818" points="63.5,407.8281,53.5,411.8281,63.5,415.8281,59.5,411.8281" style="stroke:#181818;stroke-width:1.0;"/><line style="stroke:#181818;stroke-width:1.0;" x1="57.5" x2="561.5" y1="411.8281" y2="411.8281"/><text fill="#000000" font-family="sans-serif" font-size="13" lengthAdjust="spacing" textLength="244" x="69.5" y="406.9717">Redirect to Original URL or Success Page</text><polygon fill="#181818" points="316.5,445.1797,306.5,449.1797,316.5,453.1797,312.5,449.1797" style="stroke:#181818;stroke-width:1.0;"/><line style="stroke:#181818;stroke-width:1.0;" x1="310.5" x2="561.5" y1="449.1797" y2="449.1797"/><text fill="#000000" font-family="sans-serif" font-size="13" lengthAdjust="spacing" textLength="233" x="322.5" y="444.3232">User is authenticated / Continue request</text><line style="stroke:#181818;stroke-width:1.0;" x1="305.5" x2="347.5" y1="479.5313" y2="479.5313"/><line style="stroke:#181818;stroke-width:1.0;" x1="347.5" x2="347.5" y1="479.5313" y2="492.5313"/><line style="stroke:#181818;stroke-width:1.0;" x1="306.5" x2="347.5" y1="492.5313" y2="492.5313"/><polygon fill="#181818" points="316.5,488.5313,306.5,492.5313,316.5,496.5313,312.5,492.5313" style="stroke:#181818;stroke-width:1.0;"/><text fill="#000000" font-family="sans-serif" font-size="13" lengthAdjust="spacing" textLength="100" x="312.5" y="474.6748">Process Request</text><polygon fill="#181818" points="63.5,518.8828,53.5,522.8828,63.5,526.8828,59.5,522.8828" style="stroke:#181818;stroke-width:1.0;"/><line style="stroke:#181818;stroke-width:1.0;" x1="57.5" x2="304.5" y1="522.8828" y2="522.8828"/><text fill="#000000" font-family="sans-serif" font-size="13" lengthAdjust="spacing" textLength="188" x="69.5" y="518.0264">Send Response (e.g., user data)</text><!--SRC=[XLBTJi8m5BxlKvnunHBTxadK8E72H2C1UO13Up8QbhQsdH2VtjDkp04QTxEi-_xET-hGHosrGnFXoTj382-07pSwlraSdQSGOERS3M1-NuDcRTp1grQgeGDwwe1y9iQePxKKelU1kuUaD8KLVRGK8YozZIGZAJu9jlMIO5AXqrNBw48mDbDOSvgmCaNgkGAR29iaQcm4P0WPDaKMoqbpE2RtribJQSzc46qAbG7Mwo-CsXfO6EMiDZ5pHt4PERs0dW8aP1BwosHD_fD5vjWqMvHxsAnUuA0vrRdSt2gwTCqb3SHJMvDAzaUFaadtPLaMtQo_zNIYdxMHntctU-A9ZtA7fgOV-UjSnNZ8JducitgdmLjprWGwy-XmYn1ns-YmwvQqPXAh_h-QDwzhRR39TLacjftX4ciIP9GOR597MLk7y_r3nU7vmxG4lb_MgQ94khn9_RyXpffjXj5WGcLTtaAwaQ0mOY6-0G00]--></g></svg>