<?xml version="1.0" encoding="us-ascii" standalone="no"?><svg xmlns="http://www.w3.org/2000/svg" xmlns:xlink="http://www.w3.org/1999/xlink" contentStyleType="text/css" height="1016px" preserveAspectRatio="none" style="width:795px;height:1016px;background:#FFFFFF;" version="1.1" viewBox="0 0 795 1016" width="795px" zoomAndPan="magnify"><defs/><g><!--class user--><g id="elem_user"><rect codeLine="1" fill="#F1F1F1" height="178.375" id="user" rx="2.5" ry="2.5" style="stroke:#181818;stroke-width:0.5;" width="203" x="134.5" y="658"/><ellipse cx="215.75" cy="674" fill="#ADD1B2" rx="11" ry="11" style="stroke:#181818;stroke-width:1.0;"/><path d="M219.8594,680 L212.1406,680 L212.1406,667.6094 L219.8594,667.6094 L219.8594,669.7656 L214.5938,669.7656 L214.5938,672.4375 L219.3594,672.4375 L219.3594,674.5938 L214.5938,674.5938 L214.5938,677.8438 L219.8594,677.8438 L219.8594,680 Z " fill="#000000"/><text fill="#000000" font-family="sans-serif" font-size="14" lengthAdjust="spacing" textLength="32" x="236.25" y="678.8467">User</text><line style="stroke:#181818;stroke-width:0.5;" x1="135.5" x2="336.5" y1="690" y2="690"/><ellipse cx="145.5" cy="703.6484" fill="#000000" rx="3" ry="3" style="stroke:#000000;stroke-width:1.0;"/><text fill="#000000" font-family="sans-serif" font-size="14" lengthAdjust="spacing" textLength="164" x="154.5" y="706.9951">id: integer &#171;generated&#187;</text><line style="stroke:#181818;stroke-width:1.0;" x1="135.5" x2="336.5" y1="714.2969" y2="714.2969"/><ellipse cx="145.5" cy="727.9453" fill="#000000" rx="3" ry="3" style="stroke:#000000;stroke-width:1.0;"/><text fill="#000000" font-family="sans-serif" font-size="14" lengthAdjust="spacing" textLength="105" x="154.5" y="731.292">username: text</text><ellipse cx="145.5" cy="744.2422" fill="#000000" rx="3" ry="3" style="stroke:#000000;stroke-width:1.0;"/><text fill="#000000" font-family="sans-serif" font-size="14" lengthAdjust="spacing" textLength="71" x="154.5" y="747.5889">email: text</text><ellipse cx="145.5" cy="760.5391" fill="#000000" rx="3" ry="3" style="stroke:#000000;stroke-width:1.0;"/><text fill="#000000" font-family="sans-serif" font-size="14" lengthAdjust="spacing" textLength="99" x="154.5" y="763.8857">firstname: text</text><ellipse cx="145.5" cy="776.8359" fill="#000000" rx="3" ry="3" style="stroke:#000000;stroke-width:1.0;"/><text fill="#000000" font-family="sans-serif" font-size="14" lengthAdjust="spacing" textLength="98" x="154.5" y="780.1826">lastname: text</text><ellipse cx="145.5" cy="793.1328" fill="#000000" rx="3" ry="3" style="stroke:#000000;stroke-width:1.0;"/><text fill="#000000" font-family="sans-serif" font-size="14" lengthAdjust="spacing" textLength="177" x="154.5" y="796.4795">dateRegistered: datetime</text><ellipse cx="145.5" cy="809.4297" fill="#000000" rx="3" ry="3" style="stroke:#000000;stroke-width:1.0;"/><text fill="#000000" font-family="sans-serif" font-size="14" lengthAdjust="spacing" textLength="131" x="154.5" y="812.7764">lastLogin: datetime</text><ellipse cx="145.5" cy="825.7266" fill="#000000" rx="3" ry="3" style="stroke:#000000;stroke-width:1.0;"/><text fill="#000000" font-family="sans-serif" font-size="14" lengthAdjust="spacing" textLength="117" x="154.5" y="829.0732">isActive: boolean</text></g><!--class role--><g id="elem_role"><rect codeLine="13" fill="#F1F1F1" height="96.8906" id="role" rx="2.5" ry="2.5" style="stroke:#181818;stroke-width:0.5;" width="190" x="373" y="698.5"/><ellipse cx="448.25" cy="714.5" fill="#ADD1B2" rx="11" ry="11" style="stroke:#181818;stroke-width:1.0;"/><path d="M452.3594,720.5 L444.6406,720.5 L444.6406,708.1094 L452.3594,708.1094 L452.3594,710.2656 L447.0938,710.2656 L447.0938,712.9375 L451.8594,712.9375 L451.8594,715.0938 L447.0938,715.0938 L447.0938,718.3438 L452.3594,718.3438 L452.3594,720.5 Z " fill="#000000"/><text fill="#000000" font-family="sans-serif" font-size="14" lengthAdjust="spacing" textLength="31" x="468.75" y="719.3467">Role</text><line style="stroke:#181818;stroke-width:0.5;" x1="374" x2="562" y1="730.5" y2="730.5"/><ellipse cx="384" cy="744.1484" fill="#000000" rx="3" ry="3" style="stroke:#000000;stroke-width:1.0;"/><text fill="#000000" font-family="sans-serif" font-size="14" lengthAdjust="spacing" textLength="164" x="393" y="747.4951">id: integer &#171;generated&#187;</text><line style="stroke:#181818;stroke-width:1.0;" x1="374" x2="562" y1="754.7969" y2="754.7969"/><ellipse cx="384" cy="768.4453" fill="#000000" rx="3" ry="3" style="stroke:#000000;stroke-width:1.0;"/><text fill="#000000" font-family="sans-serif" font-size="14" lengthAdjust="spacing" textLength="74" x="393" y="771.792">name: text</text><ellipse cx="384" cy="784.7422" fill="#000000" rx="3" ry="3" style="stroke:#000000;stroke-width:1.0;"/><text fill="#000000" font-family="sans-serif" font-size="14" lengthAdjust="spacing" textLength="112" x="393" y="788.0889">description: text</text></g><!--class perm--><g id="elem_perm"><rect codeLine="20" fill="#F1F1F1" height="96.8906" id="perm" rx="2.5" ry="2.5" style="stroke:#181818;stroke-width:0.5;" width="190" x="598" y="698.5"/><ellipse cx="650.75" cy="714.5" fill="#ADD1B2" rx="11" ry="11" style="stroke:#181818;stroke-width:1.0;"/><path d="M654.8594,720.5 L647.1406,720.5 L647.1406,708.1094 L654.8594,708.1094 L654.8594,710.2656 L649.5938,710.2656 L649.5938,712.9375 L654.3594,712.9375 L654.3594,715.0938 L649.5938,715.0938 L649.5938,718.3438 L654.8594,718.3438 L654.8594,720.5 Z " fill="#000000"/><text fill="#000000" font-family="sans-serif" font-size="14" lengthAdjust="spacing" textLength="76" x="671.25" y="719.3467">Permission</text><line style="stroke:#181818;stroke-width:0.5;" x1="599" x2="787" y1="730.5" y2="730.5"/><ellipse cx="609" cy="744.1484" fill="#000000" rx="3" ry="3" style="stroke:#000000;stroke-width:1.0;"/><text fill="#000000" font-family="sans-serif" font-size="14" lengthAdjust="spacing" textLength="164" x="618" y="747.4951">id: integer &#171;generated&#187;</text><line style="stroke:#181818;stroke-width:1.0;" x1="599" x2="787" y1="754.7969" y2="754.7969"/><ellipse cx="609" cy="768.4453" fill="#000000" rx="3" ry="3" style="stroke:#000000;stroke-width:1.0;"/><text fill="#000000" font-family="sans-serif" font-size="14" lengthAdjust="spacing" textLength="74" x="618" y="771.792">name: text</text><ellipse cx="609" cy="784.7422" fill="#000000" rx="3" ry="3" style="stroke:#000000;stroke-width:1.0;"/><text fill="#000000" font-family="sans-serif" font-size="14" lengthAdjust="spacing" textLength="112" x="618" y="788.0889">description: text</text></g><!--class userrole--><g id="elem_userrole"><rect codeLine="27" fill="#F1F1F1" height="96.8906" id="userrole" rx="2.5" ry="2.5" style="stroke:#181818;stroke-width:0.5;" width="173" x="255.5" y="913"/><ellipse cx="306.25" cy="929" fill="#ADD1B2" rx="11" ry="11" style="stroke:#181818;stroke-width:1.0;"/><path d="M310.3594,935 L302.6406,935 L302.6406,922.6094 L310.3594,922.6094 L310.3594,924.7656 L305.0938,924.7656 L305.0938,927.4375 L309.8594,927.4375 L309.8594,929.5938 L305.0938,929.5938 L305.0938,932.8438 L310.3594,932.8438 L310.3594,935 Z " fill="#000000"/><text fill="#000000" font-family="sans-serif" font-size="14" lengthAdjust="spacing" textLength="63" x="326.75" y="933.8467">UserRole</text><line style="stroke:#181818;stroke-width:0.5;" x1="256.5" x2="427.5" y1="945" y2="945"/><ellipse cx="266.5" cy="958.6484" fill="#000000" rx="3" ry="3" style="stroke:#000000;stroke-width:1.0;"/><text fill="#000000" font-family="sans-serif" font-size="14" lengthAdjust="spacing" textLength="147" x="275.5" y="961.9951">user_id: integer &#171;FK&#187;</text><ellipse cx="266.5" cy="974.9453" fill="#000000" rx="3" ry="3" style="stroke:#000000;stroke-width:1.0;"/><text fill="#000000" font-family="sans-serif" font-size="14" lengthAdjust="spacing" textLength="142" x="275.5" y="978.292">role_id: integer &#171;FK&#187;</text><line style="stroke:#181818;stroke-width:1.0;" x1="256.5" x2="427.5" y1="985.5938" y2="985.5938"/><text fill="#000000" font-family="sans-serif" font-size="14" lengthAdjust="spacing" textLength="4" x="261.5" y="1002.5889">&#160;</text></g><!--class roleperm--><g id="elem_roleperm"><rect codeLine="34" fill="#F1F1F1" height="96.8906" id="roleperm" rx="2.5" ry="2.5" style="stroke:#181818;stroke-width:0.5;" width="178" x="529" y="913"/><ellipse cx="561.55" cy="929" fill="#ADD1B2" rx="11" ry="11" style="stroke:#181818;stroke-width:1.0;"/><path d="M565.6594,935 L557.9406,935 L557.9406,922.6094 L565.6594,922.6094 L565.6594,924.7656 L560.3938,924.7656 L560.3938,927.4375 L565.1594,927.4375 L565.1594,929.5938 L560.3938,929.5938 L560.3938,932.8438 L565.6594,932.8438 L565.6594,935 Z " fill="#000000"/><text fill="#000000" font-family="sans-serif" font-size="14" lengthAdjust="spacing" textLength="107" x="579.45" y="933.8467">RolePermission</text><line style="stroke:#181818;stroke-width:0.5;" x1="530" x2="706" y1="945" y2="945"/><ellipse cx="540" cy="958.6484" fill="#000000" rx="3" ry="3" style="stroke:#000000;stroke-width:1.0;"/><text fill="#000000" font-family="sans-serif" font-size="14" lengthAdjust="spacing" textLength="142" x="549" y="961.9951">role_id: integer &#171;FK&#187;</text><ellipse cx="540" cy="974.9453" fill="#000000" rx="3" ry="3" style="stroke:#000000;stroke-width:1.0;"/><text fill="#000000" font-family="sans-serif" font-size="14" lengthAdjust="spacing" textLength="152" x="549" y="978.292">perm_id: integer &#171;FK&#187;</text><line style="stroke:#181818;stroke-width:1.0;" x1="530" x2="706" y1="985.5938" y2="985.5938"/><text fill="#000000" font-family="sans-serif" font-size="14" lengthAdjust="spacing" textLength="4" x="535" y="1002.5889">&#160;</text></g><!--class team--><g id="elem_team"><rect codeLine="42" fill="#F1F1F1" height="129.4844" id="team" rx="2.5" ry="2.5" style="stroke:#181818;stroke-width:0.5;" width="190" x="141" y="452"/><ellipse cx="212.25" cy="468" fill="#ADD1B2" rx="11" ry="11" style="stroke:#181818;stroke-width:1.0;"/><path d="M216.3594,474 L208.6406,474 L208.6406,461.6094 L216.3594,461.6094 L216.3594,463.7656 L211.0938,463.7656 L211.0938,466.4375 L215.8594,466.4375 L215.8594,468.5938 L211.0938,468.5938 L211.0938,471.8438 L216.3594,471.8438 L216.3594,474 Z " fill="#000000"/><text fill="#000000" font-family="sans-serif" font-size="14" lengthAdjust="spacing" textLength="39" x="232.75" y="472.8467">Team</text><line style="stroke:#181818;stroke-width:0.5;" x1="142" x2="330" y1="484" y2="484"/><ellipse cx="152" cy="497.6484" fill="#000000" rx="3" ry="3" style="stroke:#000000;stroke-width:1.0;"/><text fill="#000000" font-family="sans-serif" font-size="14" lengthAdjust="spacing" textLength="164" x="161" y="500.9951">id: integer &#171;generated&#187;</text><line style="stroke:#181818;stroke-width:1.0;" x1="142" x2="330" y1="508.2969" y2="508.2969"/><ellipse cx="152" cy="521.9453" fill="#000000" rx="3" ry="3" style="stroke:#000000;stroke-width:1.0;"/><text fill="#000000" font-family="sans-serif" font-size="14" lengthAdjust="spacing" textLength="74" x="161" y="525.292">name: text</text><ellipse cx="152" cy="538.2422" fill="#000000" rx="3" ry="3" style="stroke:#000000;stroke-width:1.0;"/><text fill="#000000" font-family="sans-serif" font-size="14" lengthAdjust="spacing" textLength="130" x="161" y="541.5889">primaryColour: text</text><text fill="#000000" font-family="sans-serif" font-size="14" lengthAdjust="spacing" textLength="143" x="161" y="557.8857">secondaryColor: text</text><text fill="#000000" font-family="sans-serif" font-size="14" lengthAdjust="spacing" textLength="118" x="161" y="574.1826">tertiaryColor: text</text></g><!--class session--><g id="elem_session"><rect codeLine="54" fill="#F1F1F1" height="113.1875" id="session" rx="2.5" ry="2.5" style="stroke:#181818;stroke-width:0.5;" width="190" x="29" y="254"/><ellipse cx="92.25" cy="270" fill="#ADD1B2" rx="11" ry="11" style="stroke:#181818;stroke-width:1.0;"/><path d="M96.3594,276 L88.6406,276 L88.6406,263.6094 L96.3594,263.6094 L96.3594,265.7656 L91.0938,265.7656 L91.0938,268.4375 L95.8594,268.4375 L95.8594,270.5938 L91.0938,270.5938 L91.0938,273.8438 L96.3594,273.8438 L96.3594,276 Z " fill="#000000"/><text fill="#000000" font-family="sans-serif" font-size="14" lengthAdjust="spacing" textLength="55" x="112.75" y="274.8467">Session</text><line style="stroke:#181818;stroke-width:0.5;" x1="30" x2="218" y1="286" y2="286"/><ellipse cx="40" cy="299.6484" fill="#000000" rx="3" ry="3" style="stroke:#000000;stroke-width:1.0;"/><text fill="#000000" font-family="sans-serif" font-size="14" lengthAdjust="spacing" textLength="164" x="49" y="302.9951">id: integer &#171;generated&#187;</text><line style="stroke:#181818;stroke-width:1.0;" x1="30" x2="218" y1="310.2969" y2="310.2969"/><ellipse cx="40" cy="323.9453" fill="#000000" rx="3" ry="3" style="stroke:#000000;stroke-width:1.0;"/><text fill="#000000" font-family="sans-serif" font-size="14" lengthAdjust="spacing" textLength="74" x="49" y="327.292">name: text</text><ellipse cx="40" cy="340.2422" fill="#000000" rx="3" ry="3" style="stroke:#000000;stroke-width:1.0;"/><text fill="#000000" font-family="sans-serif" font-size="14" lengthAdjust="spacing" textLength="112" x="49" y="343.5889">description: text</text><ellipse cx="40" cy="356.5391" fill="#000000" rx="3" ry="3" style="stroke:#000000;stroke-width:1.0;"/><text fill="#000000" font-family="sans-serif" font-size="14" lengthAdjust="spacing" textLength="71" x="49" y="359.8857">date: date</text></g><!--class activity--><g id="elem_activity"><rect codeLine="66" fill="#F1F1F1" height="162.0781" id="activity" rx="2.5" ry="2.5" style="stroke:#181818;stroke-width:0.5;" width="234" x="7" y="7"/><ellipse cx="96.25" cy="23" fill="#ADD1B2" rx="11" ry="11" style="stroke:#181818;stroke-width:1.0;"/><path d="M100.3594,29 L92.6406,29 L92.6406,16.6094 L100.3594,16.6094 L100.3594,18.7656 L95.0938,18.7656 L95.0938,21.4375 L99.8594,21.4375 L99.8594,23.5938 L95.0938,23.5938 L95.0938,26.8438 L100.3594,26.8438 L100.3594,29 Z " fill="#000000"/><text fill="#000000" font-family="sans-serif" font-size="14" lengthAdjust="spacing" textLength="47" x="116.75" y="27.8467">Activity</text><line style="stroke:#181818;stroke-width:0.5;" x1="8" x2="240" y1="39" y2="39"/><ellipse cx="18" cy="52.6484" fill="#000000" rx="3" ry="3" style="stroke:#000000;stroke-width:1.0;"/><text fill="#000000" font-family="sans-serif" font-size="14" lengthAdjust="spacing" textLength="164" x="27" y="55.9951">id: integer &#171;generated&#187;</text><line style="stroke:#181818;stroke-width:1.0;" x1="8" x2="240" y1="63.2969" y2="63.2969"/><ellipse cx="18" cy="76.9453" fill="#000000" rx="3" ry="3" style="stroke:#000000;stroke-width:1.0;"/><text fill="#000000" font-family="sans-serif" font-size="14" lengthAdjust="spacing" textLength="74" x="27" y="80.292">name: text</text><ellipse cx="18" cy="93.2422" fill="#000000" rx="3" ry="3" style="stroke:#000000;stroke-width:1.0;"/><text fill="#000000" font-family="sans-serif" font-size="14" lengthAdjust="spacing" textLength="112" x="27" y="96.5889">description: text</text><ellipse cx="18" cy="109.5391" fill="#000000" rx="3" ry="3" style="stroke:#000000;stroke-width:1.0;"/><text fill="#000000" font-family="sans-serif" font-size="14" lengthAdjust="spacing" textLength="132" x="27" y="112.8857">timeStart: datetime</text><ellipse cx="18" cy="125.8359" fill="#000000" rx="3" ry="3" style="stroke:#000000;stroke-width:1.0;"/><text fill="#000000" font-family="sans-serif" font-size="14" lengthAdjust="spacing" textLength="127" x="27" y="129.1826">timeEnd: datetime</text><ellipse cx="18" cy="142.1328" fill="#000000" rx="3" ry="3" style="stroke:#000000;stroke-width:1.0;"/><text fill="#000000" font-family="sans-serif" font-size="14" lengthAdjust="spacing" textLength="208" x="27" y="145.4795">duration: integer &#171;computed&#187;</text><ellipse cx="18" cy="158.4297" fill="#000000" rx="3" ry="3" style="stroke:#000000;stroke-width:1.0;"/><text fill="#000000" font-family="sans-serif" font-size="14" lengthAdjust="spacing" textLength="78" x="27" y="161.7764">colour: text</text></g><!--class activity_temp--><g id="elem_activity_temp"><rect codeLine="81" fill="#F1F1F1" height="129.4844" id="activity_temp" rx="2.5" ry="2.5" style="stroke:#181818;stroke-width:0.5;" width="190" x="254" y="246"/><ellipse cx="286.55" cy="262" fill="#ADD1B2" rx="11" ry="11" style="stroke:#181818;stroke-width:1.0;"/><path d="M290.6594,268 L282.9406,268 L282.9406,255.6094 L290.6594,255.6094 L290.6594,257.7656 L285.3938,257.7656 L285.3938,260.4375 L290.1594,260.4375 L290.1594,262.5938 L285.3938,262.5938 L285.3938,265.8438 L290.6594,265.8438 L290.6594,268 Z " fill="#000000"/><text fill="#000000" font-family="sans-serif" font-size="14" lengthAdjust="spacing" textLength="119" x="304.45" y="266.8467">Activity_Template</text><line style="stroke:#181818;stroke-width:0.5;" x1="255" x2="443" y1="278" y2="278"/><ellipse cx="265" cy="291.6484" fill="#000000" rx="3" ry="3" style="stroke:#000000;stroke-width:1.0;"/><text fill="#000000" font-family="sans-serif" font-size="14" lengthAdjust="spacing" textLength="164" x="274" y="294.9951">id: integer &#171;generated&#187;</text><line style="stroke:#181818;stroke-width:1.0;" x1="255" x2="443" y1="302.2969" y2="302.2969"/><ellipse cx="265" cy="315.9453" fill="#000000" rx="3" ry="3" style="stroke:#000000;stroke-width:1.0;"/><text fill="#000000" font-family="sans-serif" font-size="14" lengthAdjust="spacing" textLength="74" x="274" y="319.292">name: text</text><ellipse cx="265" cy="332.2422" fill="#000000" rx="3" ry="3" style="stroke:#000000;stroke-width:1.0;"/><text fill="#000000" font-family="sans-serif" font-size="14" lengthAdjust="spacing" textLength="112" x="274" y="335.5889">description: text</text><text fill="#000000" font-family="sans-serif" font-size="14" lengthAdjust="spacing" textLength="115" x="274" y="351.8857">duration: integer</text><ellipse cx="265" cy="364.8359" fill="#000000" rx="3" ry="3" style="stroke:#000000;stroke-width:1.0;"/><text fill="#000000" font-family="sans-serif" font-size="14" lengthAdjust="spacing" textLength="78" x="274" y="368.1826">colour: text</text></g><!--link user to userrole--><g id="link_user_userrole"><path codeLine="96" d="M283.6022,843.4281 C296.6922,869.6581 303.3799,883.0708 314.6499,905.6708 " fill="none" id="user-userrole" style="stroke:#181818;stroke-width:1.0;"/><line style="stroke:#181818;stroke-width:1.0;" x1="278.2371" x2="285.3952" y1="841.6352" y2="838.0629"/><line style="stroke:#181818;stroke-width:1.0;" x1="279.5766" x2="286.7348" y1="844.3195" y2="840.7473"/><line style="stroke:#181818;stroke-width:1.0;" x1="283.6022" x2="280.03" y1="843.4281" y2="836.27"/><line style="stroke:#181818;stroke-width:1.0;" x1="314.6499" x2="323.5894" y1="905.6708" y2="910.1524"/><line style="stroke:#181818;stroke-width:1.0;" x1="314.6499" x2="312.8506" y1="905.6708" y2="915.5076"/><line style="stroke:#181818;stroke-width:1.0;" x1="314.6499" x2="318.22" y1="905.6708" y2="912.83"/><line style="stroke:#181818;stroke-width:1.0;" x1="317.337" x2="310.1778" y1="902.0959" y2="905.666"/><polygon fill="#000000" points="308.2318,879.0407,306.8243,869.6348,301.5645,872.2585,308.2318,879.0407" style="stroke:#000000;stroke-width:1.0;"/><text fill="#000000" font-family="sans-serif" font-size="13" lengthAdjust="spacing" textLength="23" x="315" y="879.0669">has</text></g><!--link role to userrole--><g id="link_role_userrole"><path codeLine="97" d="M435.6402,802.5715 C414.8902,837.5715 400.0907,862.5273 379.3607,897.4873 " fill="none" id="role-userrole" style="stroke:#181818;stroke-width:1.0;"/><line style="stroke:#181818;stroke-width:1.0;" x1="434.2393" x2="441.1209" y1="797.0909" y2="801.1707"/><line style="stroke:#181818;stroke-width:1.0;" x1="432.7094" x2="439.591" y1="799.6715" y2="803.7512"/><line style="stroke:#181818;stroke-width:1.0;" x1="435.6402" x2="439.72" y1="802.5715" y2="795.69"/><line style="stroke:#181818;stroke-width:1.0;" x1="374.2603" x2="375.3409" y1="906.0888" y2="916.0302"/><line style="stroke:#181818;stroke-width:1.0;" x1="374.2603" x2="365.0191" y1="906.0888" y2="909.9098"/><line style="stroke:#181818;stroke-width:1.0;" x1="374.2603" x2="370.18" y1="906.0888" y2="912.97"/><ellipse cx="377.3205" cy="900.9279" fill="none" rx="4" ry="4" style="stroke:#181818;stroke-width:1.0;"/><polygon fill="#000000" points="404.5501,870.2656,397.409,876.5469,402.4649,879.5448,404.5501,870.2656" style="stroke:#000000;stroke-width:1.0;"/><text fill="#000000" font-family="sans-serif" font-size="13" lengthAdjust="spacing" textLength="23" x="411" y="879.0669">has</text></g><!--link role to roleperm--><g id="link_role_roleperm"><path codeLine="98" d="M506.274,802.2254 C530.984,837.2254 549.389,863.305 574.069,898.265 " fill="none" id="role-roleperm" style="stroke:#181818;stroke-width:1.0;"/><line style="stroke:#181818;stroke-width:1.0;" x1="500.6993" x2="507.2347" y1="801.2647" y2="796.6507"/><line style="stroke:#181818;stroke-width:1.0;" x1="502.4295" x2="508.9649" y1="803.7154" y2="799.1015"/><line style="stroke:#181818;stroke-width:1.0;" x1="506.274" x2="501.66" y1="802.2254" y2="795.69"/><line style="stroke:#181818;stroke-width:1.0;" x1="579.8362" x2="589.3517" y1="906.4345" y2="909.5097"/><line style="stroke:#181818;stroke-width:1.0;" x1="579.8362" x2="579.5483" y1="906.4345" y2="916.4303"/><line style="stroke:#181818;stroke-width:1.0;" x1="579.8362" x2="584.45" y1="906.4345" y2="912.97"/><ellipse cx="576.3759" cy="901.5328" fill="none" rx="4" ry="4" style="stroke:#181818;stroke-width:1.0;"/><polygon fill="#000000" points="567.8835,878.6512,565.0682,869.5669,560.2662,872.9566,567.8835,878.6512" style="stroke:#000000;stroke-width:1.0;"/><text fill="#000000" font-family="sans-serif" font-size="13" lengthAdjust="spacing" textLength="23" x="574" y="879.0669">has</text></g><!--link perm to roleperm--><g id="link_perm_roleperm"><path codeLine="99" d="M673.508,803.2341 C661.158,838.2341 653.097,861.0348 640.767,895.9948 " fill="none" id="perm-roleperm" style="stroke:#181818;stroke-width:1.0;"/><line style="stroke:#181818;stroke-width:1.0;" x1="671.0669" x2="678.6111" y1="798.1311" y2="800.7931"/><line style="stroke:#181818;stroke-width:1.0;" x1="670.0687" x2="677.6128" y1="800.9601" y2="803.6221"/><line style="stroke:#181818;stroke-width:1.0;" x1="673.508" x2="676.17" y1="803.2341" y2="795.69"/><line style="stroke:#181818;stroke-width:1.0;" x1="637.4409" x2="640.4384" y1="905.4255" y2="914.9657"/><line style="stroke:#181818;stroke-width:1.0;" x1="637.4409" x2="629.1216" y1="905.4255" y2="910.9743"/><line style="stroke:#181818;stroke-width:1.0;" x1="637.4409" x2="634.78" y1="905.4255" y2="912.97"/><ellipse cx="639.4365" cy="899.7671" fill="none" rx="4" ry="4" style="stroke:#181818;stroke-width:1.0;"/><polygon fill="#000000" points="657.6642,869.8515,651.8823,877.4027,657.425,879.359,657.6642,869.8515" style="stroke:#000000;stroke-width:1.0;"/><text fill="#000000" font-family="sans-serif" font-size="13" lengthAdjust="spacing" textLength="23" x="665" y="879.0669">has</text></g><!--link activity to session--><g id="link_activity_session"><path codeLine="104" d="M124,187.23 C124,215.3 124,220.19 124,245.82 " fill="none" id="activity-session" style="stroke:#181818;stroke-width:1.0;"/><line style="stroke:#181818;stroke-width:1.0;" x1="124" x2="118" y1="177.23" y2="169.23"/><line style="stroke:#181818;stroke-width:1.0;" x1="124" x2="130" y1="177.23" y2="169.23"/><line style="stroke:#181818;stroke-width:1.0;" x1="124" x2="124" y1="177.23" y2="169.23"/><ellipse cx="124" cy="183.23" fill="none" rx="4" ry="4" style="stroke:#181818;stroke-width:1.0;"/><line style="stroke:#181818;stroke-width:1.0;" x1="128" x2="120" y1="249.82" y2="249.82"/><line style="stroke:#181818;stroke-width:1.0;" x1="128" x2="120" y1="246.82" y2="246.82"/><line style="stroke:#181818;stroke-width:1.0;" x1="124" x2="124" y1="245.82" y2="253.82"/><polygon fill="#000000" points="129,202.5664,126.0611,211.6115,131.9389,211.6115,129,202.5664" style="stroke:#000000;stroke-width:1.0;"/><text fill="#000000" font-family="sans-serif" font-size="13" lengthAdjust="spacing" textLength="97" x="138" y="212.0669">is composed of</text></g><!--link activity_temp to team--><g id="link_activity_temp_team"><path codeLine="105" d="M304.9892,390.9564 C291.4592,415.3864 288.6149,420.5011 275.0949,444.9211 " fill="none" id="activity_temp-team" style="stroke:#181818;stroke-width:1.0;"/><line style="stroke:#181818;stroke-width:1.0;" x1="309.8341" x2="308.4612" y1="382.2084" y2="372.3031"/><line style="stroke:#181818;stroke-width:1.0;" x1="309.8341" x2="318.9588" y1="382.2084" y2="378.1169"/><line style="stroke:#181818;stroke-width:1.0;" x1="309.8341" x2="313.71" y1="382.2084" y2="375.21"/><ellipse cx="306.9272" cy="387.4572" fill="none" rx="4" ry="4" style="stroke:#181818;stroke-width:1.0;"/><line style="stroke:#181818;stroke-width:1.0;" x1="276.6569" x2="269.658" y1="450.358" y2="446.4831"/><line style="stroke:#181818;stroke-width:1.0;" x1="278.11" x2="271.1111" y1="447.7334" y2="443.8585"/><line style="stroke:#181818;stroke-width:1.0;" x1="275.0949" x2="271.22" y1="444.9211" y2="451.92"/><polygon fill="#000000" points="302.4229,409.1927,295.469,415.6807,300.6107,418.529,302.4229,409.1927" style="stroke:#000000;stroke-width:1.0;"/><text fill="#000000" font-family="sans-serif" font-size="13" lengthAdjust="spacing" textLength="32" x="309" y="418.0669">owns</text></g><!--link team to user--><g id="link_team_user"><path codeLine="107" d="M236,599.15 C236,622.92 236,624.35 236,649.93 " fill="none" id="team-user" style="stroke:#181818;stroke-width:1.0;"/><line style="stroke:#181818;stroke-width:1.0;" x1="236" x2="230" y1="589.15" y2="581.15"/><line style="stroke:#181818;stroke-width:1.0;" x1="236" x2="242" y1="589.15" y2="581.15"/><line style="stroke:#181818;stroke-width:1.0;" x1="236" x2="236" y1="589.15" y2="581.15"/><ellipse cx="236" cy="595.15" fill="none" rx="4" ry="4" style="stroke:#181818;stroke-width:1.0;"/><line style="stroke:#181818;stroke-width:1.0;" x1="240" x2="232" y1="653.93" y2="653.93"/><line style="stroke:#181818;stroke-width:1.0;" x1="240" x2="232" y1="650.93" y2="650.93"/><line style="stroke:#181818;stroke-width:1.0;" x1="236" x2="236" y1="649.93" y2="657.93"/><polygon fill="#000000" points="241,614.5664,238.0611,623.6115,243.9389,623.6115,241,614.5664" style="stroke:#000000;stroke-width:1.0;"/><text fill="#000000" font-family="sans-serif" font-size="13" lengthAdjust="spacing" textLength="51" x="250" y="624.0669">controls</text></g><!--link session to team--><g id="link_session_team"><path codeLine="108" d="M163.2632,383.0181 C177.6432,409.2081 182.3518,417.7663 197.2318,444.8863 " fill="none" id="session-team" style="stroke:#181818;stroke-width:1.0;"/><line style="stroke:#181818;stroke-width:1.0;" x1="158.4503" x2="149.3406" y1="374.2525" y2="370.1277"/><line style="stroke:#181818;stroke-width:1.0;" x1="158.4503" x2="159.8594" y1="374.2525" y2="364.3523"/><line style="stroke:#181818;stroke-width:1.0;" x1="158.4503" x2="154.6" y1="374.2525" y2="367.24"/><ellipse cx="161.338" cy="379.5119" fill="none" rx="4" ry="4" style="stroke:#181818;stroke-width:1.0;"/><line style="stroke:#181818;stroke-width:1.0;" x1="202.6627" x2="195.6491" y1="446.4691" y2="450.3173"/><line style="stroke:#181818;stroke-width:1.0;" x1="201.2197" x2="194.206" y1="443.839" y2="447.6872"/><line style="stroke:#181818;stroke-width:1.0;" x1="197.2318" x2="201.08" y1="444.8863" y2="451.9"/><polygon fill="#000000" points="186.5936,409.1836,188.3706,418.5266,193.523,415.6978,186.5936,409.1836" style="stroke:#000000;stroke-width:1.0;"/><text fill="#000000" font-family="sans-serif" font-size="13" lengthAdjust="spacing" textLength="78" x="198" y="418.0669">has planned</text></g><!--SRC=[jLRTJzj847_tNp7AFK1GG7Ul256XwlhIwde2-emsziHPnTwDTjSDLkd_tj-C7SScno7KbXUyyps_-GgxP5DBio-HmunCf0OVz2qZ_9sHBIx9kiGbQ5TN9JiE9d5nVKqgS7xUoucICpLVKkB7r1EvDhQQK5Osn7GaLvd_81RmSykbZOa38mfv9rlpIEUJBwqxujXuaoVx5TQMtbTiNFOzoxZFyXOKpJBWuyrP7WV9CGzscwntFNtawryEjOqHFFMunVDrZp_ZK4eu92WLcIGfX8UftmyVUuTdYiTBN8Jp7CDdkOds9B__CtUcKBpYx8JUUvEloUzS98DKJKsxjGLb3N-rSIrjA-CS5nHP0ub3WFSGrh1KwoUBV48taTRyIA5SHbhvK9j4ipz2AClbShPFADZQXFQzhtmJ9ihtQuvCNYjcAWrg7NnJhYc0OG8IWhtQnqJUCUMm41QqR9B8CQERKRZ6L5LBx4HFxKRElIjwZsE769Padz4LpSzg702vnZSHdm3Nkd8FtWAKUkiZuFGhCZ90DbcEG8najYXMFXqGlkD3xNiBRyJvXFu1paYIX_gz4tI97qszHTlEFWHRc9O-sdmJPmluR9oyFvbjdBrKAhjI6dhaAqkJO3NuqDBfR8QGi4cCfkUQgWBQs4_RrCx7C_NYb1rsKhTl3g3sMBM2b3d25K9yKLxCiQ-sSK6L1siZ6Is8Ktun07hJMr541vElG_hs1TNHfQPtoOHqj3xbys_tVE5Y74sLDnLeL3JmBXNNuaiZHbfosZ4xYcAJ03owjTZ7qCkFSv1kQmuBxuJkKbjfEzHYDZS1HdSshNNqSfqhMffyKs9uuF1TRpiVJvpMvERGkn5TK6XJ1SRsaxNJhOHJwxf1bYoSJv964p1iAnXeVGEpJIMB1H6XIIHhn1HOG5Tx7e5sjkByg8OFzxtEf9WFOkbtN9mEly_x3HFHyOXoA9A4EpHKz5rwnc4wDXYol_wa6fEXxTbDrL6rVcs10B2SAQeRR3mTKzFTujE2LwQfKlT238hm6f7AkCxtUXBwVhfRbOrqkZK1HLXqqoUYjqgliIwGlVoJ8gkQ68cwNyKId02jP7DTi8DjlFHSnY6gUQO_YvwUpi-VlXrkwwLUe-jC7yBq4-QLi2VCuL3kDVLnpEmqaKc_QRjabjpjBDtHYF7GwsF9dGLBBqfbDuoy3dXD54QJCgv6RoSRckQxHz9FmvwNu6mStujiskEzl4wQ2Ci9pp9zzYp5KbXoaP1rpFR6Hxez2Fipd_q0]--></g></svg>